<?xml version="1.0" standalone="no"?>
<!DOCTYPE svg PUBLIC "-//W3C//DTD SVG 20010904//EN"
 "http://www.w3.org/TR/2001/REC-SVG-20010904/DTD/svg10.dtd">
<svg version="1.0" xmlns="http://www.w3.org/2000/svg"
 width="652.000000pt" height="664.000000pt" viewBox="0 0 652.000000 664.000000"
 preserveAspectRatio="xMidYMid meet">

<g transform="translate(0.000000,664.000000) scale(0.100000,-0.100000)"
fill="#000000" stroke="none">
<path d="M530 6089 c-22 -18 -22 -19 -3 -10 12 6 25 16 28 21 9 15 3 12 -25
-11z"/>
<path d="M3325 5794 c-16 -2 -66 -9 -110 -15 -95 -12 -248 -49 -329 -79 -73
-28 -126 -73 -126 -109 0 -77 -43 -146 -114 -184 -33 -17 -58 -22 -128 -22
-78 0 -89 2 -113 25 -15 14 -36 44 -46 67 -10 23 -26 46 -36 51 -20 11 -353
-67 -379 -89 -8 -6 -14 -20 -14 -32 0 -52 178 -799 195 -816 11 -11 41 -7 195
30 106 25 193 51 206 62 20 15 24 28 24 73 0 73 19 107 76 135 57 27 174 37
230 19 47 -15 105 -56 101 -73 -1 -7 4 -11 10 -10 27 6 71 -84 112 -224 23
-78 41 -103 74 -103 12 -1 159 32 326 72 247 59 306 76 316 93 11 17 10 35 -7
110 -39 180 -11 300 87 360 46 29 54 30 154 29 92 0 118 -4 201 -33 234 -80
485 -262 664 -480 31 -38 64 -72 72 -75 8 -3 29 1 46 10 29 15 30 18 24 62
-10 72 -73 249 -123 342 -65 122 -143 226 -247 333 -247 249 -527 390 -901
453 -88 14 -381 27 -440 18z"/>
<path d="M3605 4514 c-77 -19 -196 -47 -264 -64 -69 -17 -128 -36 -133 -43
-15 -24 -7 -101 28 -260 19 -89 57 -271 84 -404 33 -164 55 -251 68 -270 20
-27 418 -652 555 -868 38 -60 91 -144 117 -185 89 -137 130 -209 128 -222 -2
-6 3 -12 10 -13 7 0 17 -7 22 -15 6 -10 12 -11 18 -5 23 25 173 362 169 380
-21 92 -189 676 -289 1000 -47 151 -276 843 -308 928 -18 47 -45 81 -62 76 -2
-1 -66 -16 -143 -35z"/>
<path d="M2128 2653 l-3 -868 -28 -58 c-48 -97 -149 -147 -296 -147 -162 0
-265 53 -315 160 -15 33 -22 73 -26 155 l-5 110 -300 3 c-165 1 -311 0 -324
-3 l-23 -6 5 -172 c5 -195 23 -279 85 -405 49 -102 163 -222 266 -281 194
-111 484 -159 795 -132 201 18 359 61 476 132 119 72 239 217 290 353 54 143
55 167 55 1134 l0 892 -325 0 -324 0 -3 -867z"/>
<path d="M3135 3508 c-3 -7 -4 -566 -3 -1243 l3 -1230 290 0 290 0 5 528 5
527 65 -122 c68 -128 136 -258 285 -543 49 -93 115 -219 146 -280 57 -109 76
-128 97 -103 5 7 71 135 145 283 74 149 208 407 296 575 l161 305 0 -587 0
-588 300 0 300 0 0 1245 0 1245 -267 -2 -268 -3 -62 -125 c-35 -69 -133 -270
-220 -447 -87 -177 -159 -320 -161 -318 -2 2 1 14 8 27 11 22 10 22 -5 3 -8
-11 -13 -26 -10 -35 7 -18 -215 -471 -227 -464 -4 3 -9 2 -9 -3 -1 -4 -3 -20
-4 -35 -5 -34 -22 -68 -36 -68 -6 0 -7 -6 -3 -12 4 -7 4 -10 -1 -6 -4 4 -14 3
-20 -2 -8 -7 -17 -4 -28 8 -27 31 -59 102 -53 118 5 13 4 14 -7 6 -16 -13 -56
46 -368 543 -35 55 -132 208 -216 340 -84 131 -151 245 -148 253 2 7 1 11 -4
8 -5 -3 -41 44 -80 104 l-70 110 -61 0 c-39 0 -62 -4 -65 -12z"/>
<path d="M4340 2340 c0 -11 7 -20 15 -20 8 0 15 -8 16 -17 0 -15 2 -14 11 4 8
17 7 25 -5 37 -21 22 -37 20 -37 -4z"/>
</g>
</svg>
